<svg xmlns="http://www.w3.org/2000/svg" viewBox="0 0 128 128" role="img" aria-label="SK monogram">
  <defs>
    <linearGradient id="g" x1="0%" y1="0%" x2="100%" y2="100%">
      <stop offset="0%" stop-color="#67e8f9"/>
      <stop offset="100%" stop-color="#fb923c"/>
    </linearGradient>
  </defs>
  <rect width="128" height="128" rx="32" fill="#07111e"/>
  <rect x="8" y="8" width="112" height="112" rx="26" fill="none" stroke="url(#g)" stroke-width="4"/>
  <path d="M38 41c6-8 18-13 31-13 12 0 22 4 29 10l-10 12c-6-5-13-7-20-7-8 0-14 2-18 6-3 2-4 5-4 8 0 4 2 6 7 8 3 1 8 2 16 3 11 1 19 4 25 8 7 5 10 12 10 22 0 11-4 20-13 26-8 6-18 9-31 9-18 0-33-6-43-17l11-13c9 9 20 14 33 14 8 0 14-2 18-5 4-3 6-7 6-12 0-4-1-7-4-9-4-3-10-5-19-6-13-2-22-5-28-9-7-5-10-12-10-22 0-9 3-17 9-23z" fill="url(#g)"/>
  <path d="M32 30h16v68H32zM58 65l31-35h20L77 66l34 32H90z" fill="#edf4ff"/>
</svg>
